<svg width="80" height="80" viewBox="0 0 80 80" fill="none" xmlns="http://www.w3.org/2000/svg">
<path d="M36.9123 15.3918V3.08772C36.9123 2.26901 37.2398 1.49708 37.8246 0.912281C38.4094 0.327485 39.1813 0 40 0C40.8187 0 41.5906 0.327485 42.1754 0.912281C42.7602 1.49708 43.0877 2.26901 43.0877 3.08772V15.3918C43.0877 16.2105 42.7602 16.9825 42.1754 17.5673C41.5906 18.152 40.8187 18.4795 40 18.4795C39.1813 18.4795 38.4094 18.152 37.8246 17.5673C37.2398 16.9825 36.9123 16.2105 36.9123 15.3918ZM54.3392 57.4269C54.3392 57.8246 54.4094 58.2222 54.5731 58.5965C54.7135 58.9708 54.9474 59.2982 55.2281 59.579L63.9298 68.2807C64.2105 68.5848 64.538 68.8421 64.9357 69.0058C65.3099 69.1696 65.731 69.2632 66.152 69.2866C66.5731 69.2866 66.9942 69.2164 67.3684 69.076C67.7661 68.9123 68.117 68.6784 68.3977 68.3977C68.7018 68.0936 68.9357 67.7427 69.076 67.3684C69.2398 66.9708 69.3099 66.5731 69.2866 66.152C69.2866 65.731 69.193 65.3333 69.0058 64.9357C68.8421 64.5614 68.5848 64.2105 68.2807 63.9298L59.579 55.2281C58.9942 54.6433 58.2222 54.3392 57.4035 54.3392C56.5848 54.3392 55.8129 54.6667 55.2281 55.2281C54.9474 55.5088 54.7134 55.8596 54.5497 56.2339C54.4094 56.6082 54.3392 57.0058 54.3392 57.4269ZM68.2807 16.0702C68.8187 15.4854 69.0994 14.7135 69.076 13.9181C69.0526 13.1228 68.7251 12.3743 68.1871 11.8129C67.6257 11.2515 66.8772 10.924 66.0819 10.924C65.2866 10.9006 64.5146 11.1813 63.9298 11.7193L55.2281 20.4211C54.6667 21.0058 54.3392 21.7778 54.3392 22.5965C54.3392 23.4152 54.6667 24.1871 55.2281 24.7719C55.8129 25.3567 56.5848 25.6608 57.4035 25.6608C58.2222 25.6608 58.9942 25.3333 59.579 24.7719L68.2807 16.0702ZM24.7719 20.4211L16.0702 11.7193C15.7895 11.4386 15.4386 11.2047 15.0643 11.0409C14.6901 10.8772 14.2924 10.807 13.8947 10.807C13.4971 10.807 13.0994 10.8772 12.7251 11.0409C12.3509 11.2047 12.0234 11.4386 11.7193 11.7193C11.4386 12 11.2047 12.3275 11.0409 12.7018C10.8772 13.076 10.807 13.4737 10.807 13.8713C10.807 14.269 10.9006 14.6901 11.0409 15.0643C11.2047 15.4386 11.4386 15.7895 11.7193 16.0702L20.4211 24.7719C21.0058 25.3099 21.7778 25.5906 22.5731 25.5673C23.3684 25.5439 24.117 25.2164 24.6784 24.6784C25.2398 24.117 25.5673 23.3684 25.5673 22.5731C25.5906 21.7778 25.3099 21.0058 24.7719 20.4211ZM43.0877 76.9123V64.6082C43.0877 63.7895 42.7602 63.0175 42.1754 62.4327C41.5906 61.848 40.8187 61.5205 40 61.5205C39.1813 61.5205 38.4094 61.848 37.8246 62.4327C37.2398 63.0175 36.9123 63.7895 36.9123 64.6082V76.9123C36.9123 77.731 37.2398 78.5029 37.8246 79.0877C38.4094 79.6725 39.1813 80 40 80C40.8187 80 41.5906 79.6725 42.1754 79.0877C42.7602 78.5263 43.0877 77.731 43.0877 76.9123ZM24.7719 59.579C25.3099 58.9942 25.5906 58.2222 25.5673 57.4269C25.5439 56.6316 25.2164 55.883 24.6784 55.3216C24.117 54.7602 23.3684 54.4327 22.5731 54.4327C21.7778 54.4094 21.0058 54.6901 20.4211 55.2281L11.7193 63.9298C11.4386 64.2105 11.2047 64.5614 11.0409 64.9357C10.8772 65.3099 10.807 65.7076 10.807 66.1287C10.807 66.5263 10.8772 66.924 11.0409 67.2982C11.2047 67.6725 11.4386 68 11.7193 68.2807C12 68.5614 12.3509 68.7953 12.7251 68.9591C13.0994 69.1228 13.4971 69.193 13.8947 69.193C14.2924 69.193 14.6901 69.1228 15.0643 68.9591C15.4386 68.7953 15.7661 68.5614 16.0702 68.2807L24.7719 59.579ZM18.4561 40C18.4561 39.1813 18.1287 38.4094 17.5439 37.8246C16.9591 37.2398 16.1871 36.9123 15.3684 36.9123H3.08772C2.26901 36.9123 1.49708 37.2398 0.912281 37.8246C0.327485 38.4094 0 39.1813 0 40C0 40.8187 0.327485 41.5906 0.912281 42.1754C1.49708 42.7602 2.26901 43.0877 3.08772 43.0877H15.3918C16.2105 43.0877 16.9825 42.7602 17.5673 42.1754C18.1287 41.5906 18.4561 40.8187 18.4561 40ZM80 40C80 39.1813 79.6725 38.4094 79.0877 37.8246C78.5029 37.2398 77.731 36.9123 76.9123 36.9123H64.6082C63.7895 36.9123 63.0175 37.2398 62.4327 37.8246C61.848 38.4094 61.5205 39.1813 61.5205 40C61.5205 40.8187 61.848 41.5906 62.4327 42.1754C63.0175 42.7602 63.7895 43.0877 64.6082 43.0877H76.9123C77.731 43.0877 78.5029 42.7602 79.0877 42.1754C79.6725 41.5906 80 40.8187 80 40Z" fill="#099FC5"/>
</svg>
