<svg width="40" height="40" viewBox="0 0 40 40" fill="none" xmlns="http://www.w3.org/2000/svg">
<circle cx="20" cy="20" r="20" fill="black" fill-opacity="0.3"/>
<path d="M23.9051 22.2488C22.6588 22.2488 22.0596 22.9673 20.0144 22.9673C17.9691 22.9673 17.3742 22.2488 16.1236 22.2488C12.9016 22.2488 10.2875 24.952 10.2875 28.2839V29.4334C10.2875 30.6234 11.2211 31.5888 12.3719 31.5888H27.6569C28.8076 31.5888 29.7412 30.6234 29.7412 29.4334V28.2839C29.7412 24.952 27.1271 22.2488 23.9051 22.2488ZM27.6569 29.4334H12.3719V28.2839C12.3719 26.1465 14.0567 24.4042 16.1236 24.4042C16.7576 24.4042 17.7867 25.1227 20.0144 25.1227C22.2593 25.1227 23.2668 24.4042 23.9051 24.4042C25.972 24.4042 27.6569 26.1465 27.6569 28.2839V29.4334ZM20.0144 21.5304C23.4665 21.5304 26.2673 18.6341 26.2673 15.0643C26.2673 11.4944 23.4665 8.59814 20.0144 8.59814C16.5622 8.59814 13.7614 11.4944 13.7614 15.0643C13.7614 18.6341 16.5622 21.5304 20.0144 21.5304ZM20.0144 10.7535C22.3114 10.7535 24.183 12.6889 24.183 15.0643C24.183 17.4397 22.3114 19.375 20.0144 19.375C17.7173 19.375 15.8457 17.4397 15.8457 15.0643C15.8457 12.6889 17.7173 10.7535 20.0144 10.7535Z" fill="white" fill-opacity="0.7"/>
</svg>
