<svg width="40" height="41" viewBox="0 0 40 41" fill="none" xmlns="http://www.w3.org/2000/svg">
<ellipse cx="20" cy="20.3846" rx="20" ry="20.3846" fill="black" fill-opacity="0.3"/>
<path d="M23.6641 19.4148H15.804V16.2194C15.804 15.0433 16.1878 14.0392 16.9554 13.2071C17.723 12.3749 18.6492 11.9589 19.734 11.9589C20.8189 11.9589 21.7451 12.3749 22.5127 13.2071C23.2803 14.0392 23.6641 15.0433 23.6641 16.2194V19.4148ZM10.8915 21.0124V30.5986C10.8915 31.0424 11.0348 31.4196 11.3213 31.7303C11.6079 32.0409 11.9559 32.1963 12.3652 32.1963H27.1028C27.5122 32.1963 27.8602 32.0409 28.1468 31.7303C28.4333 31.4196 28.5766 31.0424 28.5766 30.5986V21.0124C28.5766 20.5686 28.4333 20.1914 28.1468 19.8807C27.8602 19.5701 27.5122 19.4148 27.1028 19.4148H26.6116V16.2194C26.6116 14.1779 25.9361 12.4249 24.5852 10.9603C23.2342 9.49576 21.6172 8.76349 19.734 8.76349C17.8509 8.76349 16.2339 9.49576 14.8829 10.9603C13.532 12.4249 12.8565 14.1779 12.8565 16.2194V19.4148H12.3652C11.9559 19.4148 11.6079 19.5701 11.3213 19.8807C11.0348 20.1914 10.8915 20.5686 10.8915 21.0124Z" fill="white" fill-opacity="0.7"/>
</svg>
