<svg width="40" height="40" viewBox="0 0 40 40" fill="none" xmlns="http://www.w3.org/2000/svg">
<circle cx="20" cy="20" r="20" fill="black" fill-opacity="0.3"/>
<path d="M31.4019 25.7476V14.2523C31.4019 13.1922 30.5037 12.3364 29.391 12.3364H10.6091C9.49635 12.3364 8.59814 13.1922 8.59814 14.2523V25.7476C8.59814 26.8078 9.49635 27.6635 10.6091 27.6635H29.391C30.5037 27.6635 31.4019 26.8078 31.4019 25.7476ZM29.6457 14.1118C30.0881 14.5333 29.8468 14.9676 29.6055 15.1847L24.1626 19.9361L29.391 25.1218C29.5518 25.3006 29.6591 25.5816 29.4714 25.7732C29.2971 25.9775 28.8949 25.9648 28.7207 25.837L22.8622 21.0729L19.9933 23.5635L17.1378 21.0729L11.2794 25.837C11.1051 25.9648 10.7029 25.9775 10.5286 25.7732C10.3409 25.5816 10.4482 25.3006 10.6091 25.1218L15.8374 19.9361L10.3946 15.1847C10.1532 14.9676 9.91194 14.5333 10.3543 14.1118C10.7967 13.6903 11.2525 13.8947 11.6279 14.2012L19.9933 20.6386L28.3721 14.2012C28.7475 13.8947 29.2033 13.6903 29.6457 14.1118V14.1118Z" fill="white" fill-opacity="0.7"/>
</svg>
