<svg width="40" height="41" viewBox="0 0 40 41" fill="none" xmlns="http://www.w3.org/2000/svg">
<ellipse cx="20" cy="20.3846" rx="20" ry="20.3846" fill="black" fill-opacity="0.3"/>
<path d="M22.8405 24.241L24.3633 22.6882C24.5684 22.4817 24.8279 22.3403 25.1103 22.2812C25.3927 22.2222 25.6859 22.248 25.9542 22.3555L27.8101 23.1111C28.0813 23.2233 28.3138 23.4148 28.4783 23.6616C28.6428 23.9083 28.7321 24.1991 28.7347 24.4975V27.9635C28.7332 28.1665 28.6913 28.367 28.6117 28.553C28.5321 28.739 28.4165 28.9067 28.2716 29.046C28.1268 29.1852 27.9559 29.2931 27.7691 29.3632C27.5823 29.4333 27.3835 29.4642 27.1847 29.4539C14.1792 28.629 11.555 17.3991 11.0587 13.1012C11.0356 12.8902 11.0567 12.6766 11.1204 12.4744C11.1842 12.2722 11.2892 12.0861 11.4286 11.9283C11.5679 11.7705 11.7385 11.6446 11.929 11.5588C12.1195 11.473 12.3257 11.4293 12.5339 11.4306H15.8176C16.1106 11.4315 16.3967 11.5218 16.639 11.6898C16.8813 11.8578 17.0688 12.0959 17.1773 12.3734L17.9183 14.2658C18.0273 14.5383 18.0551 14.8375 17.9983 15.126C17.9414 15.4145 17.8025 15.6795 17.5988 15.8879L16.076 17.4407C16.076 17.4407 16.953 23.4923 22.8405 24.241Z" fill="white" fill-opacity="0.7"/>
</svg>
